<svg width="114" height="26" viewBox="0 0 114 26" fill="none" xmlns="http://www.w3.org/2000/svg">
<mask id="path-1-outside-1_506_1429" maskUnits="userSpaceOnUse" x="-0.562082" y="-0.551147" width="115" height="26" fill="black">
<rect fill="white" x="-0.562082" y="-0.551147" width="115" height="26"/>
<path d="M0.437918 24.716V23.8687L1.11577 23.8009C1.9066 23.7105 2.50537 23.5976 2.91208 23.462C3.34139 23.3038 3.63513 22.9875 3.79329 22.513C3.97405 22.0159 4.06443 21.2138 4.06443 20.1066V5.05826C4.06443 3.9285 3.98535 3.12638 3.82719 2.65188C3.66902 2.17738 3.37528 1.87235 2.94598 1.73678C2.53926 1.57861 1.94049 1.45434 1.14966 1.36396L0.47181 1.29617V0.448853L5.48793 0.550531H10.2668C13.3171 0.550531 15.893 0.957244 17.9943 1.77067C20.1183 2.58409 21.7338 3.87201 22.841 5.63443C23.9481 7.37426 24.5017 9.65636 24.5017 12.4808C24.5017 14.4917 24.1628 16.2541 23.4849 17.768C22.8071 19.2819 21.8807 20.5472 20.7057 21.564C19.5308 22.5808 18.1864 23.349 16.6725 23.8687C15.1812 24.3658 13.6109 24.6143 11.9614 24.6143H5.45403L0.437918 24.716ZM9.21612 23.5976H12.097C14.8536 23.5976 17.0679 22.705 18.74 20.92C20.412 19.1124 21.248 16.3219 21.248 12.5485C21.248 10.2438 20.9204 8.27806 20.2651 6.65121C19.6325 5.00177 18.5818 3.74774 17.1131 2.88913C15.667 2.00792 13.7126 1.56731 11.2497 1.56731H6.9792V19.666C6.9792 20.3213 7.02439 20.9539 7.11478 21.564C7.20516 22.1515 7.40851 22.6373 7.72484 23.0214C8.04118 23.4055 8.53827 23.5976 9.21612 23.5976Z"/>
<path d="M39.2941 24.9872C36.4697 24.9872 34.278 24.3658 32.719 23.1231C31.1599 21.8803 30.3804 19.8581 30.3804 17.0563V5.05826C30.3804 3.9285 30.3013 3.12638 30.1431 2.65188C29.9849 2.17738 29.6912 1.87235 29.2619 1.73678C28.8552 1.57861 28.2564 1.45434 27.4656 1.36396L26.7877 1.29617V0.448853L31.8038 0.550531H31.8377L36.8539 0.448853V1.29617L36.176 1.36396C35.4078 1.45434 34.809 1.57861 34.3797 1.73678C33.9504 1.87235 33.6566 2.17738 33.4985 2.65188C33.3403 3.12638 33.2612 3.9285 33.2612 5.05826V17.0563C33.2612 19.3384 33.8826 21.0443 35.1253 22.1741C36.3681 23.3038 37.9723 23.8687 39.9381 23.8687C42.2202 23.8687 43.8696 23.2473 44.8864 22.0046C45.9032 20.7393 46.4116 19.022 46.4116 16.8529V5.05826C46.4116 3.9285 46.3325 3.12638 46.1743 2.65188C46.0162 2.17738 45.7224 1.87235 45.2931 1.73678C44.8864 1.57861 44.2876 1.45434 43.4968 1.36396L42.819 1.29617V0.448853L47.8351 0.516639L51.2017 0.540469L51.1905 1.29617L50.5126 1.36396C49.7444 1.45434 49.1456 1.57861 48.7163 1.73678C48.287 1.87235 47.9932 2.17738 47.8351 2.65188C47.6769 3.12638 47.5978 3.9285 47.5978 5.05826V16.8529C47.5978 19.4739 46.9087 21.4849 45.5304 22.8858C44.1521 24.2867 42.0733 24.9872 39.2941 24.9872Z"/>
<path d="M50.4748 24.716V23.8687L51.2204 23.8009C52.1468 23.7105 52.8473 23.5976 53.3218 23.462C53.8188 23.3038 54.1578 22.9875 54.3385 22.513C54.5419 22.0159 54.6436 21.2138 54.6436 20.1066V1.46563H49.8647C44.6408 1.46563 47.4282 0.528867 47.4282 0.528867L54.4741 0.550531H57.6939L67.3972 0.544394C67.3972 0.544394 67.5524 1.46563 62.5406 1.46563H57.5244V20.1066C57.5244 21.2138 57.6148 22.0159 57.7956 22.513C57.9989 22.9875 58.3492 23.3038 58.8463 23.462C59.3434 23.5976 60.0438 23.7105 60.9476 23.8009L61.6932 23.8687V24.716L56.1687 24.6143L50.4748 24.716Z"/>
<path d="M74.5508 24.9872C71.7264 24.9872 69.5347 24.3658 67.9756 23.1231C66.4166 21.8803 65.637 19.8581 65.637 17.0563V5.05826C65.637 4.03738 65.7812 2.13552 64.5186 1.73678C64.1118 1.57861 63.5131 1.45434 62.7223 1.36396L62.0444 1.29617V0.54778L67.0605 0.550531H67.0944L72.1105 0.448853V1.29617L71.4327 1.36396C70.6644 1.45434 70.0657 1.57861 69.6364 1.73678C69.2071 1.87235 68.9133 2.17738 68.7551 2.65188C68.597 3.12638 68.5179 3.9285 68.5179 5.05826V17.0563C68.5179 19.3384 69.1393 21.0443 70.382 22.1741C71.6247 23.3038 73.229 23.8687 75.1948 23.8687C77.4769 23.8687 79.1263 23.2473 80.1431 22.0046C81.1599 20.7393 81.6683 19.022 81.6683 16.8529V5.05826C81.6683 3.9285 81.5892 3.12638 81.431 2.65188C81.2728 2.17738 80.9791 1.87235 80.5498 1.73678C80.1431 1.57861 79.5443 1.45434 78.7535 1.36396L78.0756 1.29617V0.448853L83.0917 0.516639L86.4471 0.448853V1.29617L85.7693 1.36396C85.001 1.45434 84.4023 1.57861 83.973 1.73678C83.5437 1.87235 83.2499 2.17738 83.0917 2.65188C82.9336 3.12638 82.8545 3.9285 82.8545 5.05826V16.8529C82.8545 19.4739 82.1653 21.4849 80.787 22.8858C79.4087 24.2867 77.33 24.9872 74.5508 24.9872Z"/>
<path d="M88.6884 24.716V23.8687L89.3663 23.8009C90.1571 23.7105 90.7559 23.5976 91.1626 23.462C91.5919 23.3038 91.8856 22.9875 92.0438 22.513C92.202 22.0159 92.281 21.2138 92.281 20.1066V5.05826C92.281 3.9285 92.202 3.12638 92.0438 2.65188C91.8856 2.17738 91.5919 1.87235 91.1626 1.73678C90.7559 1.57861 90.1571 1.45434 89.3663 1.36396L88.6884 1.29617V0.448853L93.7045 0.550531L98.2123 0.448853V1.33006L97.5344 1.39785C96.8566 1.46563 96.3369 1.58991 95.9754 1.77067C95.6138 1.95143 95.3653 2.29036 95.2297 2.78745C95.0941 3.28454 95.0264 4.04148 95.0264 5.05826V14.1415L102.822 5.02437C103.296 4.45949 103.635 3.97369 103.838 3.56698C104.064 3.16027 104.177 2.81004 104.177 2.51631C104.177 1.90624 103.658 1.54472 102.618 1.43174L101.534 1.33006V0.448853L105.872 0.550531L109.973 0.448853V1.29617L108.821 1.43174C108.143 1.52212 107.499 1.79326 106.889 2.24517C106.301 2.69707 105.68 3.30714 105.025 4.07537L99.7374 10.3116L106.245 18.8187C107.013 19.8129 107.702 20.6715 108.312 21.3945C108.945 22.1176 109.578 22.6825 110.21 23.0892C110.866 23.4733 111.6 23.7105 112.413 23.8009L113.125 23.8687V24.716L107.973 24.6143L102.957 24.716V23.8687L103.466 23.8348C104.55 23.767 105.092 23.4394 105.092 22.8519C105.092 22.4 104.787 21.7786 104.177 20.9878L97.7378 12.6841L95.0264 15.87V20.1066C95.0264 21.2138 95.0941 22.0159 95.2297 22.513C95.3879 22.9875 95.659 23.3038 96.0431 23.462C96.4273 23.5976 96.9808 23.7105 97.7039 23.8009L98.314 23.8687V24.716L93.7384 24.6143H93.7045L88.6884 24.716Z"/>
<path d="M0.437918 24.716V23.8687L1.11577 23.8009C1.9066 23.7105 2.50537 23.5976 2.91208 23.462C3.34139 23.3038 3.63513 22.9875 3.79329 22.513C3.97405 22.0159 4.06443 21.2138 4.06443 20.1066V5.05826C4.06443 3.9285 3.98535 3.12638 3.82719 2.65188C3.66902 2.17738 3.37528 1.87235 2.94598 1.73678C2.53926 1.57861 1.94049 1.45434 1.14966 1.36396L0.47181 1.29617V0.448853L5.48793 0.550531H10.2668C13.3171 0.550531 15.893 0.957244 17.9943 1.77067C20.1183 2.58409 21.7338 3.87201 22.841 5.63443C23.9481 7.37426 24.5017 9.65636 24.5017 12.4808C24.5017 14.4917 24.1628 16.2541 23.4849 17.768C22.8071 19.2819 21.8807 20.5472 20.7057 21.564C19.5308 22.5808 18.1864 23.349 16.6725 23.8687C15.1812 24.3658 13.6109 24.6143 11.9614 24.6143H5.45403L0.437918 24.716ZM9.21612 23.5976H12.097C14.8536 23.5976 17.0679 22.705 18.74 20.92C20.412 19.1124 21.248 16.3219 21.248 12.5485C21.248 10.2438 20.9204 8.27806 20.2651 6.65121C19.6325 5.00177 18.5818 3.74774 17.1131 2.88913C15.667 2.00792 13.7126 1.56731 11.2497 1.56731H6.9792V19.666C6.9792 20.3213 7.02439 20.9539 7.11478 21.564C7.20516 22.1515 7.40851 22.6373 7.72484 23.0214C8.04118 23.4055 8.53827 23.5976 9.21612 23.5976Z"/>
<path d="M39.2941 24.9872C36.4697 24.9872 34.278 24.3658 32.719 23.1231C31.1599 21.8803 30.3804 19.8581 30.3804 17.0563V5.05826C30.3804 3.9285 30.3013 3.12638 30.1431 2.65188C29.9849 2.17738 29.6912 1.87235 29.2619 1.73678C28.8552 1.57861 28.2564 1.45434 27.4656 1.36396L26.7877 1.29617V0.448853L31.8038 0.550531H31.8377L36.8539 0.448853V1.29617L36.176 1.36396C35.4078 1.45434 34.809 1.57861 34.3797 1.73678C33.9504 1.87235 33.6566 2.17738 33.4985 2.65188C33.3403 3.12638 33.2612 3.9285 33.2612 5.05826V17.0563C33.2612 19.3384 33.8826 21.0443 35.1253 22.1741C36.3681 23.3038 37.9723 23.8687 39.9381 23.8687C42.2202 23.8687 43.8696 23.2473 44.8864 22.0046C45.9032 20.7393 46.4116 19.022 46.4116 16.8529V5.05826C46.4116 3.9285 46.3325 3.12638 46.1743 2.65188C46.0162 2.17738 45.7224 1.87235 45.2931 1.73678C44.8864 1.57861 44.2876 1.45434 43.4968 1.36396L42.819 1.29617V0.448853L47.8351 0.516639L51.2017 0.540469L51.1905 1.29617L50.5126 1.36396C49.7444 1.45434 49.1456 1.57861 48.7163 1.73678C48.287 1.87235 47.9932 2.17738 47.8351 2.65188C47.6769 3.12638 47.5978 3.9285 47.5978 5.05826V16.8529C47.5978 19.4739 46.9087 21.4849 45.5304 22.8858C44.1521 24.2867 42.0733 24.9872 39.2941 24.9872Z"/>
<path d="M50.4748 24.716V23.8687L51.2204 23.8009C52.1468 23.7105 52.8473 23.5976 53.3218 23.462C53.8188 23.3038 54.1578 22.9875 54.3385 22.513C54.5419 22.0159 54.6436 21.2138 54.6436 20.1066V1.46563H49.8647C44.6408 1.46563 47.4282 0.528867 47.4282 0.528867L54.4741 0.550531H57.6939L67.3972 0.544394C67.3972 0.544394 67.5524 1.46563 62.5406 1.46563H57.5244V20.1066C57.5244 21.2138 57.6148 22.0159 57.7956 22.513C57.9989 22.9875 58.3492 23.3038 58.8463 23.462C59.3434 23.5976 60.0438 23.7105 60.9476 23.8009L61.6932 23.8687V24.716L56.1687 24.6143L50.4748 24.716Z"/>
<path d="M74.5508 24.9872C71.7264 24.9872 69.5347 24.3658 67.9756 23.1231C66.4166 21.8803 65.637 19.8581 65.637 17.0563V5.05826C65.637 4.03738 65.7812 2.13552 64.5186 1.73678C64.1118 1.57861 63.5131 1.45434 62.7223 1.36396L62.0444 1.29617V0.54778L67.0605 0.550531H67.0944L72.1105 0.448853V1.29617L71.4327 1.36396C70.6644 1.45434 70.0657 1.57861 69.6364 1.73678C69.2071 1.87235 68.9133 2.17738 68.7551 2.65188C68.597 3.12638 68.5179 3.9285 68.5179 5.05826V17.0563C68.5179 19.3384 69.1393 21.0443 70.382 22.1741C71.6247 23.3038 73.229 23.8687 75.1948 23.8687C77.4769 23.8687 79.1263 23.2473 80.1431 22.0046C81.1599 20.7393 81.6683 19.022 81.6683 16.8529V5.05826C81.6683 3.9285 81.5892 3.12638 81.431 2.65188C81.2728 2.17738 80.9791 1.87235 80.5498 1.73678C80.1431 1.57861 79.5443 1.45434 78.7535 1.36396L78.0756 1.29617V0.448853L83.0917 0.516639L86.4471 0.448853V1.29617L85.7693 1.36396C85.001 1.45434 84.4023 1.57861 83.973 1.73678C83.5437 1.87235 83.2499 2.17738 83.0917 2.65188C82.9336 3.12638 82.8545 3.9285 82.8545 5.05826V16.8529C82.8545 19.4739 82.1653 21.4849 80.787 22.8858C79.4087 24.2867 77.33 24.9872 74.5508 24.9872Z"/>
<path d="M88.6884 24.716V23.8687L89.3663 23.8009C90.1571 23.7105 90.7559 23.5976 91.1626 23.462C91.5919 23.3038 91.8856 22.9875 92.0438 22.513C92.202 22.0159 92.281 21.2138 92.281 20.1066V5.05826C92.281 3.9285 92.202 3.12638 92.0438 2.65188C91.8856 2.17738 91.5919 1.87235 91.1626 1.73678C90.7559 1.57861 90.1571 1.45434 89.3663 1.36396L88.6884 1.29617V0.448853L93.7045 0.550531L98.2123 0.448853V1.33006L97.5344 1.39785C96.8566 1.46563 96.3369 1.58991 95.9754 1.77067C95.6138 1.95143 95.3653 2.29036 95.2297 2.78745C95.0941 3.28454 95.0264 4.04148 95.0264 5.05826V14.1415L102.822 5.02437C103.296 4.45949 103.635 3.97369 103.838 3.56698C104.064 3.16027 104.177 2.81004 104.177 2.51631C104.177 1.90624 103.658 1.54472 102.618 1.43174L101.534 1.33006V0.448853L105.872 0.550531L109.973 0.448853V1.29617L108.821 1.43174C108.143 1.52212 107.499 1.79326 106.889 2.24517C106.301 2.69707 105.68 3.30714 105.025 4.07537L99.7374 10.3116L106.245 18.8187C107.013 19.8129 107.702 20.6715 108.312 21.3945C108.945 22.1176 109.578 22.6825 110.21 23.0892C110.866 23.4733 111.6 23.7105 112.413 23.8009L113.125 23.8687V24.716L107.973 24.6143L102.957 24.716V23.8687L103.466 23.8348C104.55 23.767 105.092 23.4394 105.092 22.8519C105.092 22.4 104.787 21.7786 104.177 20.9878L97.7378 12.6841L95.0264 15.87V20.1066C95.0264 21.2138 95.0941 22.0159 95.2297 22.513C95.3879 22.9875 95.659 23.3038 96.0431 23.462C96.4273 23.5976 96.9808 23.7105 97.7039 23.8009L98.314 23.8687V24.716L93.7384 24.6143H93.7045L88.6884 24.716Z"/>
</mask>
<path d="M0.437918 24.716V23.8687L1.11577 23.8009C1.9066 23.7105 2.50537 23.5976 2.91208 23.462C3.34139 23.3038 3.63513 22.9875 3.79329 22.513C3.97405 22.0159 4.06443 21.2138 4.06443 20.1066V5.05826C4.06443 3.9285 3.98535 3.12638 3.82719 2.65188C3.66902 2.17738 3.37528 1.87235 2.94598 1.73678C2.53926 1.57861 1.94049 1.45434 1.14966 1.36396L0.47181 1.29617V0.448853L5.48793 0.550531H10.2668C13.3171 0.550531 15.893 0.957244 17.9943 1.77067C20.1183 2.58409 21.7338 3.87201 22.841 5.63443C23.9481 7.37426 24.5017 9.65636 24.5017 12.4808C24.5017 14.4917 24.1628 16.2541 23.4849 17.768C22.8071 19.2819 21.8807 20.5472 20.7057 21.564C19.5308 22.5808 18.1864 23.349 16.6725 23.8687C15.1812 24.3658 13.6109 24.6143 11.9614 24.6143H5.45403L0.437918 24.716ZM9.21612 23.5976H12.097C14.8536 23.5976 17.0679 22.705 18.74 20.92C20.412 19.1124 21.248 16.3219 21.248 12.5485C21.248 10.2438 20.9204 8.27806 20.2651 6.65121C19.6325 5.00177 18.5818 3.74774 17.1131 2.88913C15.667 2.00792 13.7126 1.56731 11.2497 1.56731H6.9792V19.666C6.9792 20.3213 7.02439 20.9539 7.11478 21.564C7.20516 22.1515 7.40851 22.6373 7.72484 23.0214C8.04118 23.4055 8.53827 23.5976 9.21612 23.5976Z" fill="#FDF5E6"/>
<path d="M39.2941 24.9872C36.4697 24.9872 34.278 24.3658 32.719 23.1231C31.1599 21.8803 30.3804 19.8581 30.3804 17.0563V5.05826C30.3804 3.9285 30.3013 3.12638 30.1431 2.65188C29.9849 2.17738 29.6912 1.87235 29.2619 1.73678C28.8552 1.57861 28.2564 1.45434 27.4656 1.36396L26.7877 1.29617V0.448853L31.8038 0.550531H31.8377L36.8539 0.448853V1.29617L36.176 1.36396C35.4078 1.45434 34.809 1.57861 34.3797 1.73678C33.9504 1.87235 33.6566 2.17738 33.4985 2.65188C33.3403 3.12638 33.2612 3.9285 33.2612 5.05826V17.0563C33.2612 19.3384 33.8826 21.0443 35.1253 22.1741C36.3681 23.3038 37.9723 23.8687 39.9381 23.8687C42.2202 23.8687 43.8696 23.2473 44.8864 22.0046C45.9032 20.7393 46.4116 19.022 46.4116 16.8529V5.05826C46.4116 3.9285 46.3325 3.12638 46.1743 2.65188C46.0162 2.17738 45.7224 1.87235 45.2931 1.73678C44.8864 1.57861 44.2876 1.45434 43.4968 1.36396L42.819 1.29617V0.448853L47.8351 0.516639L51.2017 0.540469L51.1905 1.29617L50.5126 1.36396C49.7444 1.45434 49.1456 1.57861 48.7163 1.73678C48.287 1.87235 47.9932 2.17738 47.8351 2.65188C47.6769 3.12638 47.5978 3.9285 47.5978 5.05826V16.8529C47.5978 19.4739 46.9087 21.4849 45.5304 22.8858C44.1521 24.2867 42.0733 24.9872 39.2941 24.9872Z" fill="#FDF5E6"/>
<path d="M50.4748 24.716V23.8687L51.2204 23.8009C52.1468 23.7105 52.8473 23.5976 53.3218 23.462C53.8188 23.3038 54.1578 22.9875 54.3385 22.513C54.5419 22.0159 54.6436 21.2138 54.6436 20.1066V1.46563H49.8647C44.6408 1.46563 47.4282 0.528867 47.4282 0.528867L54.4741 0.550531H57.6939L67.3972 0.544394C67.3972 0.544394 67.5524 1.46563 62.5406 1.46563H57.5244V20.1066C57.5244 21.2138 57.6148 22.0159 57.7956 22.513C57.9989 22.9875 58.3492 23.3038 58.8463 23.462C59.3434 23.5976 60.0438 23.7105 60.9476 23.8009L61.6932 23.8687V24.716L56.1687 24.6143L50.4748 24.716Z" fill="#FDF5E6"/>
<path d="M74.5508 24.9872C71.7264 24.9872 69.5347 24.3658 67.9756 23.1231C66.4166 21.8803 65.637 19.8581 65.637 17.0563V5.05826C65.637 4.03738 65.7812 2.13552 64.5186 1.73678C64.1118 1.57861 63.5131 1.45434 62.7223 1.36396L62.0444 1.29617V0.54778L67.0605 0.550531H67.0944L72.1105 0.448853V1.29617L71.4327 1.36396C70.6644 1.45434 70.0657 1.57861 69.6364 1.73678C69.2071 1.87235 68.9133 2.17738 68.7551 2.65188C68.597 3.12638 68.5179 3.9285 68.5179 5.05826V17.0563C68.5179 19.3384 69.1393 21.0443 70.382 22.1741C71.6247 23.3038 73.229 23.8687 75.1948 23.8687C77.4769 23.8687 79.1263 23.2473 80.1431 22.0046C81.1599 20.7393 81.6683 19.022 81.6683 16.8529V5.05826C81.6683 3.9285 81.5892 3.12638 81.431 2.65188C81.2728 2.17738 80.9791 1.87235 80.5498 1.73678C80.1431 1.57861 79.5443 1.45434 78.7535 1.36396L78.0756 1.29617V0.448853L83.0917 0.516639L86.4471 0.448853V1.29617L85.7693 1.36396C85.001 1.45434 84.4023 1.57861 83.973 1.73678C83.5437 1.87235 83.2499 2.17738 83.0917 2.65188C82.9336 3.12638 82.8545 3.9285 82.8545 5.05826V16.8529C82.8545 19.4739 82.1653 21.4849 80.787 22.8858C79.4087 24.2867 77.33 24.9872 74.5508 24.9872Z" fill="#FDF5E6"/>
<path d="M88.6884 24.716V23.8687L89.3663 23.8009C90.1571 23.7105 90.7559 23.5976 91.1626 23.462C91.5919 23.3038 91.8856 22.9875 92.0438 22.513C92.202 22.0159 92.281 21.2138 92.281 20.1066V5.05826C92.281 3.9285 92.202 3.12638 92.0438 2.65188C91.8856 2.17738 91.5919 1.87235 91.1626 1.73678C90.7559 1.57861 90.1571 1.45434 89.3663 1.36396L88.6884 1.29617V0.448853L93.7045 0.550531L98.2123 0.448853V1.33006L97.5344 1.39785C96.8566 1.46563 96.3369 1.58991 95.9754 1.77067C95.6138 1.95143 95.3653 2.29036 95.2297 2.78745C95.0941 3.28454 95.0264 4.04148 95.0264 5.05826V14.1415L102.822 5.02437C103.296 4.45949 103.635 3.97369 103.838 3.56698C104.064 3.16027 104.177 2.81004 104.177 2.51631C104.177 1.90624 103.658 1.54472 102.618 1.43174L101.534 1.33006V0.448853L105.872 0.550531L109.973 0.448853V1.29617L108.821 1.43174C108.143 1.52212 107.499 1.79326 106.889 2.24517C106.301 2.69707 105.68 3.30714 105.025 4.07537L99.7374 10.3116L106.245 18.8187C107.013 19.8129 107.702 20.6715 108.312 21.3945C108.945 22.1176 109.578 22.6825 110.21 23.0892C110.866 23.4733 111.6 23.7105 112.413 23.8009L113.125 23.8687V24.716L107.973 24.6143L102.957 24.716V23.8687L103.466 23.8348C104.55 23.767 105.092 23.4394 105.092 22.8519C105.092 22.4 104.787 21.7786 104.177 20.9878L97.7378 12.6841L95.0264 15.87V20.1066C95.0264 21.2138 95.0941 22.0159 95.2297 22.513C95.3879 22.9875 95.659 23.3038 96.0431 23.462C96.4273 23.5976 96.9808 23.7105 97.7039 23.8009L98.314 23.8687V24.716L93.7384 24.6143H93.7045L88.6884 24.716Z" fill="#FDF5E6"/>
<path d="M0.437918 24.716V23.8687L1.11577 23.8009C1.9066 23.7105 2.50537 23.5976 2.91208 23.462C3.34139 23.3038 3.63513 22.9875 3.79329 22.513C3.97405 22.0159 4.06443 21.2138 4.06443 20.1066V5.05826C4.06443 3.9285 3.98535 3.12638 3.82719 2.65188C3.66902 2.17738 3.37528 1.87235 2.94598 1.73678C2.53926 1.57861 1.94049 1.45434 1.14966 1.36396L0.47181 1.29617V0.448853L5.48793 0.550531H10.2668C13.3171 0.550531 15.893 0.957244 17.9943 1.77067C20.1183 2.58409 21.7338 3.87201 22.841 5.63443C23.9481 7.37426 24.5017 9.65636 24.5017 12.4808C24.5017 14.4917 24.1628 16.2541 23.4849 17.768C22.8071 19.2819 21.8807 20.5472 20.7057 21.564C19.5308 22.5808 18.1864 23.349 16.6725 23.8687C15.1812 24.3658 13.6109 24.6143 11.9614 24.6143H5.45403L0.437918 24.716ZM9.21612 23.5976H12.097C14.8536 23.5976 17.0679 22.705 18.74 20.92C20.412 19.1124 21.248 16.3219 21.248 12.5485C21.248 10.2438 20.9204 8.27806 20.2651 6.65121C19.6325 5.00177 18.5818 3.74774 17.1131 2.88913C15.667 2.00792 13.7126 1.56731 11.2497 1.56731H6.9792V19.666C6.9792 20.3213 7.02439 20.9539 7.11478 21.564C7.20516 22.1515 7.40851 22.6373 7.72484 23.0214C8.04118 23.4055 8.53827 23.5976 9.21612 23.5976Z" fill="#FDF5E6"/>
<path d="M39.2941 24.9872C36.4697 24.9872 34.278 24.3658 32.719 23.1231C31.1599 21.8803 30.3804 19.8581 30.3804 17.0563V5.05826C30.3804 3.9285 30.3013 3.12638 30.1431 2.65188C29.9849 2.17738 29.6912 1.87235 29.2619 1.73678C28.8552 1.57861 28.2564 1.45434 27.4656 1.36396L26.7877 1.29617V0.448853L31.8038 0.550531H31.8377L36.8539 0.448853V1.29617L36.176 1.36396C35.4078 1.45434 34.809 1.57861 34.3797 1.73678C33.9504 1.87235 33.6566 2.17738 33.4985 2.65188C33.3403 3.12638 33.2612 3.9285 33.2612 5.05826V17.0563C33.2612 19.3384 33.8826 21.0443 35.1253 22.1741C36.3681 23.3038 37.9723 23.8687 39.9381 23.8687C42.2202 23.8687 43.8696 23.2473 44.8864 22.0046C45.9032 20.7393 46.4116 19.022 46.4116 16.8529V5.05826C46.4116 3.9285 46.3325 3.12638 46.1743 2.65188C46.0162 2.17738 45.7224 1.87235 45.2931 1.73678C44.8864 1.57861 44.2876 1.45434 43.4968 1.36396L42.819 1.29617V0.448853L47.8351 0.516639L51.2017 0.540469L51.1905 1.29617L50.5126 1.36396C49.7444 1.45434 49.1456 1.57861 48.7163 1.73678C48.287 1.87235 47.9932 2.17738 47.8351 2.65188C47.6769 3.12638 47.5978 3.9285 47.5978 5.05826V16.8529C47.5978 19.4739 46.9087 21.4849 45.5304 22.8858C44.1521 24.2867 42.0733 24.9872 39.2941 24.9872Z" fill="#FDF5E6"/>
<path d="M50.4748 24.716V23.8687L51.2204 23.8009C52.1468 23.7105 52.8473 23.5976 53.3218 23.462C53.8188 23.3038 54.1578 22.9875 54.3385 22.513C54.5419 22.0159 54.6436 21.2138 54.6436 20.1066V1.46563H49.8647C44.6408 1.46563 47.4282 0.528867 47.4282 0.528867L54.4741 0.550531H57.6939L67.3972 0.544394C67.3972 0.544394 67.5524 1.46563 62.5406 1.46563H57.5244V20.1066C57.5244 21.2138 57.6148 22.0159 57.7956 22.513C57.9989 22.9875 58.3492 23.3038 58.8463 23.462C59.3434 23.5976 60.0438 23.7105 60.9476 23.8009L61.6932 23.8687V24.716L56.1687 24.6143L50.4748 24.716Z" fill="#FDF5E6"/>
<path d="M74.5508 24.9872C71.7264 24.9872 69.5347 24.3658 67.9756 23.1231C66.4166 21.8803 65.637 19.8581 65.637 17.0563V5.05826C65.637 4.03738 65.7812 2.13552 64.5186 1.73678C64.1118 1.57861 63.5131 1.45434 62.7223 1.36396L62.0444 1.29617V0.54778L67.0605 0.550531H67.0944L72.1105 0.448853V1.29617L71.4327 1.36396C70.6644 1.45434 70.0657 1.57861 69.6364 1.73678C69.2071 1.87235 68.9133 2.17738 68.7551 2.65188C68.597 3.12638 68.5179 3.9285 68.5179 5.05826V17.0563C68.5179 19.3384 69.1393 21.0443 70.382 22.1741C71.6247 23.3038 73.229 23.8687 75.1948 23.8687C77.4769 23.8687 79.1263 23.2473 80.1431 22.0046C81.1599 20.7393 81.6683 19.022 81.6683 16.8529V5.05826C81.6683 3.9285 81.5892 3.12638 81.431 2.65188C81.2728 2.17738 80.9791 1.87235 80.5498 1.73678C80.1431 1.57861 79.5443 1.45434 78.7535 1.36396L78.0756 1.29617V0.448853L83.0917 0.516639L86.4471 0.448853V1.29617L85.7693 1.36396C85.001 1.45434 84.4023 1.57861 83.973 1.73678C83.5437 1.87235 83.2499 2.17738 83.0917 2.65188C82.9336 3.12638 82.8545 3.9285 82.8545 5.05826V16.8529C82.8545 19.4739 82.1653 21.4849 80.787 22.8858C79.4087 24.2867 77.33 24.9872 74.5508 24.9872Z" fill="#FDF5E6"/>
<path d="M88.6884 24.716V23.8687L89.3663 23.8009C90.1571 23.7105 90.7559 23.5976 91.1626 23.462C91.5919 23.3038 91.8856 22.9875 92.0438 22.513C92.202 22.0159 92.281 21.2138 92.281 20.1066V5.05826C92.281 3.9285 92.202 3.12638 92.0438 2.65188C91.8856 2.17738 91.5919 1.87235 91.1626 1.73678C90.7559 1.57861 90.1571 1.45434 89.3663 1.36396L88.6884 1.29617V0.448853L93.7045 0.550531L98.2123 0.448853V1.33006L97.5344 1.39785C96.8566 1.46563 96.3369 1.58991 95.9754 1.77067C95.6138 1.95143 95.3653 2.29036 95.2297 2.78745C95.0941 3.28454 95.0264 4.04148 95.0264 5.05826V14.1415L102.822 5.02437C103.296 4.45949 103.635 3.97369 103.838 3.56698C104.064 3.16027 104.177 2.81004 104.177 2.51631C104.177 1.90624 103.658 1.54472 102.618 1.43174L101.534 1.33006V0.448853L105.872 0.550531L109.973 0.448853V1.29617L108.821 1.43174C108.143 1.52212 107.499 1.79326 106.889 2.24517C106.301 2.69707 105.68 3.30714 105.025 4.07537L99.7374 10.3116L106.245 18.8187C107.013 19.8129 107.702 20.6715 108.312 21.3945C108.945 22.1176 109.578 22.6825 110.21 23.0892C110.866 23.4733 111.6 23.7105 112.413 23.8009L113.125 23.8687V24.716L107.973 24.6143L102.957 24.716V23.8687L103.466 23.8348C104.55 23.767 105.092 23.4394 105.092 22.8519C105.092 22.4 104.787 21.7786 104.177 20.9878L97.7378 12.6841L95.0264 15.87V20.1066C95.0264 21.2138 95.0941 22.0159 95.2297 22.513C95.3879 22.9875 95.659 23.3038 96.0431 23.462C96.4273 23.5976 96.9808 23.7105 97.7039 23.8009L98.314 23.8687V24.716L93.7384 24.6143H93.7045L88.6884 24.716Z" fill="#FDF5E6"/>
<path d="M0.437918 24.716V23.8687L1.11577 23.8009C1.9066 23.7105 2.50537 23.5976 2.91208 23.462C3.34139 23.3038 3.63513 22.9875 3.79329 22.513C3.97405 22.0159 4.06443 21.2138 4.06443 20.1066V5.05826C4.06443 3.9285 3.98535 3.12638 3.82719 2.65188C3.66902 2.17738 3.37528 1.87235 2.94598 1.73678C2.53926 1.57861 1.94049 1.45434 1.14966 1.36396L0.47181 1.29617V0.448853L5.48793 0.550531H10.2668C13.3171 0.550531 15.893 0.957244 17.9943 1.77067C20.1183 2.58409 21.7338 3.87201 22.841 5.63443C23.9481 7.37426 24.5017 9.65636 24.5017 12.4808C24.5017 14.4917 24.1628 16.2541 23.4849 17.768C22.8071 19.2819 21.8807 20.5472 20.7057 21.564C19.5308 22.5808 18.1864 23.349 16.6725 23.8687C15.1812 24.3658 13.6109 24.6143 11.9614 24.6143H5.45403L0.437918 24.716ZM9.21612 23.5976H12.097C14.8536 23.5976 17.0679 22.705 18.74 20.92C20.412 19.1124 21.248 16.3219 21.248 12.5485C21.248 10.2438 20.9204 8.27806 20.2651 6.65121C19.6325 5.00177 18.5818 3.74774 17.1131 2.88913C15.667 2.00792 13.7126 1.56731 11.2497 1.56731H6.9792V19.666C6.9792 20.3213 7.02439 20.9539 7.11478 21.564C7.20516 22.1515 7.40851 22.6373 7.72484 23.0214C8.04118 23.4055 8.53827 23.5976 9.21612 23.5976Z" stroke="#FDF5E6" stroke-width="1.75167" mask="url(#path-1-outside-1_506_1429)"/>
<path d="M39.2941 24.9872C36.4697 24.9872 34.278 24.3658 32.719 23.1231C31.1599 21.8803 30.3804 19.8581 30.3804 17.0563V5.05826C30.3804 3.9285 30.3013 3.12638 30.1431 2.65188C29.9849 2.17738 29.6912 1.87235 29.2619 1.73678C28.8552 1.57861 28.2564 1.45434 27.4656 1.36396L26.7877 1.29617V0.448853L31.8038 0.550531H31.8377L36.8539 0.448853V1.29617L36.176 1.36396C35.4078 1.45434 34.809 1.57861 34.3797 1.73678C33.9504 1.87235 33.6566 2.17738 33.4985 2.65188C33.3403 3.12638 33.2612 3.9285 33.2612 5.05826V17.0563C33.2612 19.3384 33.8826 21.0443 35.1253 22.1741C36.3681 23.3038 37.9723 23.8687 39.9381 23.8687C42.2202 23.8687 43.8696 23.2473 44.8864 22.0046C45.9032 20.7393 46.4116 19.022 46.4116 16.8529V5.05826C46.4116 3.9285 46.3325 3.12638 46.1743 2.65188C46.0162 2.17738 45.7224 1.87235 45.2931 1.73678C44.8864 1.57861 44.2876 1.45434 43.4968 1.36396L42.819 1.29617V0.448853L47.8351 0.516639L51.2017 0.540469L51.1905 1.29617L50.5126 1.36396C49.7444 1.45434 49.1456 1.57861 48.7163 1.73678C48.287 1.87235 47.9932 2.17738 47.8351 2.65188C47.6769 3.12638 47.5978 3.9285 47.5978 5.05826V16.8529C47.5978 19.4739 46.9087 21.4849 45.5304 22.8858C44.1521 24.2867 42.0733 24.9872 39.2941 24.9872Z" stroke="#FDF5E6" stroke-width="1.75167" mask="url(#path-1-outside-1_506_1429)"/>
<path d="M50.4748 24.716V23.8687L51.2204 23.8009C52.1468 23.7105 52.8473 23.5976 53.3218 23.462C53.8188 23.3038 54.1578 22.9875 54.3385 22.513C54.5419 22.0159 54.6436 21.2138 54.6436 20.1066V1.46563H49.8647C44.6408 1.46563 47.4282 0.528867 47.4282 0.528867L54.4741 0.550531H57.6939L67.3972 0.544394C67.3972 0.544394 67.5524 1.46563 62.5406 1.46563H57.5244V20.1066C57.5244 21.2138 57.6148 22.0159 57.7956 22.513C57.9989 22.9875 58.3492 23.3038 58.8463 23.462C59.3434 23.5976 60.0438 23.7105 60.9476 23.8009L61.6932 23.8687V24.716L56.1687 24.6143L50.4748 24.716Z" stroke="#FDF5E6" stroke-width="1.75167" mask="url(#path-1-outside-1_506_1429)"/>
<path d="M74.5508 24.9872C71.7264 24.9872 69.5347 24.3658 67.9756 23.1231C66.4166 21.8803 65.637 19.8581 65.637 17.0563V5.05826C65.637 4.03738 65.7812 2.13552 64.5186 1.73678C64.1118 1.57861 63.5131 1.45434 62.7223 1.36396L62.0444 1.29617V0.54778L67.0605 0.550531H67.0944L72.1105 0.448853V1.29617L71.4327 1.36396C70.6644 1.45434 70.0657 1.57861 69.6364 1.73678C69.2071 1.87235 68.9133 2.17738 68.7551 2.65188C68.597 3.12638 68.5179 3.9285 68.5179 5.05826V17.0563C68.5179 19.3384 69.1393 21.0443 70.382 22.1741C71.6247 23.3038 73.229 23.8687 75.1948 23.8687C77.4769 23.8687 79.1263 23.2473 80.1431 22.0046C81.1599 20.7393 81.6683 19.022 81.6683 16.8529V5.05826C81.6683 3.9285 81.5892 3.12638 81.431 2.65188C81.2728 2.17738 80.9791 1.87235 80.5498 1.73678C80.1431 1.57861 79.5443 1.45434 78.7535 1.36396L78.0756 1.29617V0.448853L83.0917 0.516639L86.4471 0.448853V1.29617L85.7693 1.36396C85.001 1.45434 84.4023 1.57861 83.973 1.73678C83.5437 1.87235 83.2499 2.17738 83.0917 2.65188C82.9336 3.12638 82.8545 3.9285 82.8545 5.05826V16.8529C82.8545 19.4739 82.1653 21.4849 80.787 22.8858C79.4087 24.2867 77.33 24.9872 74.5508 24.9872Z" stroke="#FDF5E6" stroke-width="1.75167" mask="url(#path-1-outside-1_506_1429)"/>
<path d="M88.6884 24.716V23.8687L89.3663 23.8009C90.1571 23.7105 90.7559 23.5976 91.1626 23.462C91.5919 23.3038 91.8856 22.9875 92.0438 22.513C92.202 22.0159 92.281 21.2138 92.281 20.1066V5.05826C92.281 3.9285 92.202 3.12638 92.0438 2.65188C91.8856 2.17738 91.5919 1.87235 91.1626 1.73678C90.7559 1.57861 90.1571 1.45434 89.3663 1.36396L88.6884 1.29617V0.448853L93.7045 0.550531L98.2123 0.448853V1.33006L97.5344 1.39785C96.8566 1.46563 96.3369 1.58991 95.9754 1.77067C95.6138 1.95143 95.3653 2.29036 95.2297 2.78745C95.0941 3.28454 95.0264 4.04148 95.0264 5.05826V14.1415L102.822 5.02437C103.296 4.45949 103.635 3.97369 103.838 3.56698C104.064 3.16027 104.177 2.81004 104.177 2.51631C104.177 1.90624 103.658 1.54472 102.618 1.43174L101.534 1.33006V0.448853L105.872 0.550531L109.973 0.448853V1.29617L108.821 1.43174C108.143 1.52212 107.499 1.79326 106.889 2.24517C106.301 2.69707 105.68 3.30714 105.025 4.07537L99.7374 10.3116L106.245 18.8187C107.013 19.8129 107.702 20.6715 108.312 21.3945C108.945 22.1176 109.578 22.6825 110.21 23.0892C110.866 23.4733 111.6 23.7105 112.413 23.8009L113.125 23.8687V24.716L107.973 24.6143L102.957 24.716V23.8687L103.466 23.8348C104.55 23.767 105.092 23.4394 105.092 22.8519C105.092 22.4 104.787 21.7786 104.177 20.9878L97.7378 12.6841L95.0264 15.87V20.1066C95.0264 21.2138 95.0941 22.0159 95.2297 22.513C95.3879 22.9875 95.659 23.3038 96.0431 23.462C96.4273 23.5976 96.9808 23.7105 97.7039 23.8009L98.314 23.8687V24.716L93.7384 24.6143H93.7045L88.6884 24.716Z" stroke="#FDF5E6" stroke-width="1.75167" mask="url(#path-1-outside-1_506_1429)"/>
<path d="M0.437918 24.716V23.8687L1.11577 23.8009C1.9066 23.7105 2.50537 23.5976 2.91208 23.462C3.34139 23.3038 3.63513 22.9875 3.79329 22.513C3.97405 22.0159 4.06443 21.2138 4.06443 20.1066V5.05826C4.06443 3.9285 3.98535 3.12638 3.82719 2.65188C3.66902 2.17738 3.37528 1.87235 2.94598 1.73678C2.53926 1.57861 1.94049 1.45434 1.14966 1.36396L0.47181 1.29617V0.448853L5.48793 0.550531H10.2668C13.3171 0.550531 15.893 0.957244 17.9943 1.77067C20.1183 2.58409 21.7338 3.87201 22.841 5.63443C23.9481 7.37426 24.5017 9.65636 24.5017 12.4808C24.5017 14.4917 24.1628 16.2541 23.4849 17.768C22.8071 19.2819 21.8807 20.5472 20.7057 21.564C19.5308 22.5808 18.1864 23.349 16.6725 23.8687C15.1812 24.3658 13.6109 24.6143 11.9614 24.6143H5.45403L0.437918 24.716ZM9.21612 23.5976H12.097C14.8536 23.5976 17.0679 22.705 18.74 20.92C20.412 19.1124 21.248 16.3219 21.248 12.5485C21.248 10.2438 20.9204 8.27806 20.2651 6.65121C19.6325 5.00177 18.5818 3.74774 17.1131 2.88913C15.667 2.00792 13.7126 1.56731 11.2497 1.56731H6.9792V19.666C6.9792 20.3213 7.02439 20.9539 7.11478 21.564C7.20516 22.1515 7.40851 22.6373 7.72484 23.0214C8.04118 23.4055 8.53827 23.5976 9.21612 23.5976Z" stroke="#FDF5E6" stroke-width="1.75167" mask="url(#path-1-outside-1_506_1429)"/>
<path d="M39.2941 24.9872C36.4697 24.9872 34.278 24.3658 32.719 23.1231C31.1599 21.8803 30.3804 19.8581 30.3804 17.0563V5.05826C30.3804 3.9285 30.3013 3.12638 30.1431 2.65188C29.9849 2.17738 29.6912 1.87235 29.2619 1.73678C28.8552 1.57861 28.2564 1.45434 27.4656 1.36396L26.7877 1.29617V0.448853L31.8038 0.550531H31.8377L36.8539 0.448853V1.29617L36.176 1.36396C35.4078 1.45434 34.809 1.57861 34.3797 1.73678C33.9504 1.87235 33.6566 2.17738 33.4985 2.65188C33.3403 3.12638 33.2612 3.9285 33.2612 5.05826V17.0563C33.2612 19.3384 33.8826 21.0443 35.1253 22.1741C36.3681 23.3038 37.9723 23.8687 39.9381 23.8687C42.2202 23.8687 43.8696 23.2473 44.8864 22.0046C45.9032 20.7393 46.4116 19.022 46.4116 16.8529V5.05826C46.4116 3.9285 46.3325 3.12638 46.1743 2.65188C46.0162 2.17738 45.7224 1.87235 45.2931 1.73678C44.8864 1.57861 44.2876 1.45434 43.4968 1.36396L42.819 1.29617V0.448853L47.8351 0.516639L51.2017 0.540469L51.1905 1.29617L50.5126 1.36396C49.7444 1.45434 49.1456 1.57861 48.7163 1.73678C48.287 1.87235 47.9932 2.17738 47.8351 2.65188C47.6769 3.12638 47.5978 3.9285 47.5978 5.05826V16.8529C47.5978 19.4739 46.9087 21.4849 45.5304 22.8858C44.1521 24.2867 42.0733 24.9872 39.2941 24.9872Z" stroke="#FDF5E6" stroke-width="1.75167" mask="url(#path-1-outside-1_506_1429)"/>
<path d="M50.4748 24.716V23.8687L51.2204 23.8009C52.1468 23.7105 52.8473 23.5976 53.3218 23.462C53.8188 23.3038 54.1578 22.9875 54.3385 22.513C54.5419 22.0159 54.6436 21.2138 54.6436 20.1066V1.46563H49.8647C44.6408 1.46563 47.4282 0.528867 47.4282 0.528867L54.4741 0.550531H57.6939L67.3972 0.544394C67.3972 0.544394 67.5524 1.46563 62.5406 1.46563H57.5244V20.1066C57.5244 21.2138 57.6148 22.0159 57.7956 22.513C57.9989 22.9875 58.3492 23.3038 58.8463 23.462C59.3434 23.5976 60.0438 23.7105 60.9476 23.8009L61.6932 23.8687V24.716L56.1687 24.6143L50.4748 24.716Z" stroke="#FDF5E6" stroke-width="1.75167" mask="url(#path-1-outside-1_506_1429)"/>
<path d="M74.5508 24.9872C71.7264 24.9872 69.5347 24.3658 67.9756 23.1231C66.4166 21.8803 65.637 19.8581 65.637 17.0563V5.05826C65.637 4.03738 65.7812 2.13552 64.5186 1.73678C64.1118 1.57861 63.5131 1.45434 62.7223 1.36396L62.0444 1.29617V0.54778L67.0605 0.550531H67.0944L72.1105 0.448853V1.29617L71.4327 1.36396C70.6644 1.45434 70.0657 1.57861 69.6364 1.73678C69.2071 1.87235 68.9133 2.17738 68.7551 2.65188C68.597 3.12638 68.5179 3.9285 68.5179 5.05826V17.0563C68.5179 19.3384 69.1393 21.0443 70.382 22.1741C71.6247 23.3038 73.229 23.8687 75.1948 23.8687C77.4769 23.8687 79.1263 23.2473 80.1431 22.0046C81.1599 20.7393 81.6683 19.022 81.6683 16.8529V5.05826C81.6683 3.9285 81.5892 3.12638 81.431 2.65188C81.2728 2.17738 80.9791 1.87235 80.5498 1.73678C80.1431 1.57861 79.5443 1.45434 78.7535 1.36396L78.0756 1.29617V0.448853L83.0917 0.516639L86.4471 0.448853V1.29617L85.7693 1.36396C85.001 1.45434 84.4023 1.57861 83.973 1.73678C83.5437 1.87235 83.2499 2.17738 83.0917 2.65188C82.9336 3.12638 82.8545 3.9285 82.8545 5.05826V16.8529C82.8545 19.4739 82.1653 21.4849 80.787 22.8858C79.4087 24.2867 77.33 24.9872 74.5508 24.9872Z" stroke="#FDF5E6" stroke-width="1.75167" mask="url(#path-1-outside-1_506_1429)"/>
<path d="M88.6884 24.716V23.8687L89.3663 23.8009C90.1571 23.7105 90.7559 23.5976 91.1626 23.462C91.5919 23.3038 91.8856 22.9875 92.0438 22.513C92.202 22.0159 92.281 21.2138 92.281 20.1066V5.05826C92.281 3.9285 92.202 3.12638 92.0438 2.65188C91.8856 2.17738 91.5919 1.87235 91.1626 1.73678C90.7559 1.57861 90.1571 1.45434 89.3663 1.36396L88.6884 1.29617V0.448853L93.7045 0.550531L98.2123 0.448853V1.33006L97.5344 1.39785C96.8566 1.46563 96.3369 1.58991 95.9754 1.77067C95.6138 1.95143 95.3653 2.29036 95.2297 2.78745C95.0941 3.28454 95.0264 4.04148 95.0264 5.05826V14.1415L102.822 5.02437C103.296 4.45949 103.635 3.97369 103.838 3.56698C104.064 3.16027 104.177 2.81004 104.177 2.51631C104.177 1.90624 103.658 1.54472 102.618 1.43174L101.534 1.33006V0.448853L105.872 0.550531L109.973 0.448853V1.29617L108.821 1.43174C108.143 1.52212 107.499 1.79326 106.889 2.24517C106.301 2.69707 105.68 3.30714 105.025 4.07537L99.7374 10.3116L106.245 18.8187C107.013 19.8129 107.702 20.6715 108.312 21.3945C108.945 22.1176 109.578 22.6825 110.21 23.0892C110.866 23.4733 111.6 23.7105 112.413 23.8009L113.125 23.8687V24.716L107.973 24.6143L102.957 24.716V23.8687L103.466 23.8348C104.55 23.767 105.092 23.4394 105.092 22.8519C105.092 22.4 104.787 21.7786 104.177 20.9878L97.7378 12.6841L95.0264 15.87V20.1066C95.0264 21.2138 95.0941 22.0159 95.2297 22.513C95.3879 22.9875 95.659 23.3038 96.0431 23.462C96.4273 23.5976 96.9808 23.7105 97.7039 23.8009L98.314 23.8687V24.716L93.7384 24.6143H93.7045L88.6884 24.716Z" stroke="#FDF5E6" stroke-width="1.75167" mask="url(#path-1-outside-1_506_1429)"/>
</svg>
